<svg width="64" height="64" viewBox="0 0 64 64" fill="none" xmlns="http://www.w3.org/2000/svg">
  <!-- Background circle -->
  <circle cx="32" cy="32" r="30" fill="#ff6b6b" stroke="#ee5a24" stroke-width="2"/>
  
  <!-- Plant with anxious personality -->
  <g transform="translate(32, 28)">
    <!-- Main leaf (trembling) -->
    <ellipse cx="0" cy="0" rx="12" ry="8" fill="#ff7675" transform="rotate(-5 0 0)"/>
    
    <!-- Worried eyes -->
    <circle cx="-5" cy="-1" r="2" fill="#2c3e50"/>
    <circle cx="5" cy="-1" r="2" fill="#2c3e50"/>
    
    <!-- Worried mouth -->
    <path d="M-4 4 Q0 2 4 4" stroke="#2c3e50" stroke-width="2" fill="none"/>
    
    <!-- Sweat drops -->
    <g fill="#4a90e2">
      <ellipse cx="10" cy="-2" rx="2" ry="3"/>
      <ellipse cx="-10" cy="0" rx="1.5" ry="2.5"/>
    </g>
    
    <!-- Trembling leaves -->
    <ellipse cx="-8" cy="4" rx="3" ry="2" fill="#ff7675" transform="rotate(-20 -8 4)"/>
    <ellipse cx="8" cy="4" rx="3" ry="2" fill="#ff7675" transform="rotate(20 8 4)"/>
  </g>
  
  <!-- Stem (shaking) -->
  <rect x="30" y="36" width="4" height="8" fill="#ee5a24" transform="rotate(2 32 40)"/>
  
  <!-- Anxious pot -->
  <path d="M26 44L28 52H36L38 44H26Z" fill="#ff7675"/>
  <rect x="24" y="42" width="16" height="3" fill="#ee5a24"/>
  
  <!-- Worry lines -->
  <g stroke="#2c3e50" stroke-width="1" opacity="0.6">
    <line x1="20" y1="20" x2="18" y2="18"/>
    <line x1="44" y1="20" x2="46" y2="18"/>
    <line x1="22" y1="18" x2="20" y2="16"/>
    <line x1="42" y1="18" x2="44" y2="16"/>
  </g>
</svg>
