<svg width="64" height="64" viewBox="0 0 64 64" fill="none" xmlns="http://www.w3.org/2000/svg">
  <!-- Background circle -->
  <circle cx="32" cy="32" r="30" fill="#6c5ce7" stroke="#5f3dc4" stroke-width="2"/>
  
  <!-- Plant with formal personality -->
  <g transform="translate(32, 28)">
    <!-- Main leaf -->
    <ellipse cx="0" cy="0" rx="12" ry="8" fill="#a29bfe"/>
    
    <!-- Monocle -->
    <circle cx="-5" cy="0" r="4" stroke="#2c3e50" stroke-width="2" fill="none"/>
    <circle cx="-5" cy="0" r="1" fill="#2c3e50"/>
    <line x1="-1" y1="0" x2="2" y2="2" stroke="#2c3e50" stroke-width="1"/>
    
    <!-- Other eye -->
    <circle cx="5" cy="0" r="1" fill="#2c3e50"/>
    
    <!-- Formal smile -->
    <path d="M-4 4 Q0 5 4 4" stroke="#2c3e50" stroke-width="2" fill="none"/>
    
    <!-- Top hat -->
    <rect x="-6" y="-10" width="12" height="6" fill="#2c3e50"/>
    <rect x="-8" y="-8" width="16" height="2" fill="#2c3e50"/>
    
    <!-- Bow tie -->
    <path d="M-4 6 L-2 8 L0 6 L2 8 L4 6 L2 4 L0 6 L-2 4 Z" fill="#e74c3c"/>
  </g>
  
  <!-- Stem -->
  <rect x="30" y="36" width="4" height="8" fill="#5f3dc4"/>
  
  <!-- Formal pot -->
  <path d="M26 44L28 52H36L38 44H26Z" fill="#a29bfe"/>
  <rect x="24" y="42" width="16" height="3" fill="#5f3dc4"/>
  
  <!-- Decorative elements -->
  <g fill="#ffd700" opacity="0.8">
    <circle cx="18" cy="20" r="1"/>
    <circle cx="46" cy="20" r="1"/>
    <circle cx="20" cy="45" r="1"/>
    <circle cx="44" cy="45" r="1"/>
  </g>
</svg>
