<svg width="64" height="64" viewBox="0 0 64 64" fill="none" xmlns="http://www.w3.org/2000/svg">
  <!-- Background circle -->
  <circle cx="32" cy="32" r="30" fill="#87a96b" stroke="#6b8e5a" stroke-width="2"/>
  
  <!-- Small pot (left) -->
  <g transform="translate(16, 32)">
    <path d="M-6 0L-5 8H5L6 0H-6Z" fill="#d2691e" stroke="#a0522d" stroke-width="1"/>
    <rect x="-7" y="-2" width="14" height="2" fill="#a0522d"/>
    <!-- Small plant -->
    <path d="M0 -8C-2 -8 -3 -6 -3 -4C-3 -2 -2 0 0 0C2 0 3 -2 3 -4C3 -6 2 -8 0 -8Z" fill="#90ee90"/>
    <rect x="-1" y="0" width="2" height="4" fill="#228b22"/>
  </g>
  
  <!-- Medium pot (center) -->
  <g transform="translate(32, 32)">
    <path d="M-8 0L-6 10H6L8 0H-8Z" fill="#cd853f" stroke="#8b4513" stroke-width="1"/>
    <rect x="-9" y="-2" width="18" height="2" fill="#8b4513"/>
    <!-- Medium plant -->
    <path d="M0 -10C-3 -10 -4 -7 -4 -4C-4 -1 -2 0 0 0C2 0 4 -1 4 -4C4 -7 3 -10 0 -10Z" fill="#90ee90"/>
    <rect x="-1" y="0" width="2" height="5" fill="#228b22"/>
  </g>
  
  <!-- Large pot (right) -->
  <g transform="translate(48, 32)">
    <path d="M-10 0L-8 12H8L10 0H-10Z" fill="#daa520" stroke="#b8860b" stroke-width="1"/>
    <rect x="-11" y="-2" width="22" height="2" fill="#b8860b"/>
    <!-- Large plant -->
    <path d="M0 -12C-4 -12 -5 -8 -5 -4C-5 0 -2 0 0 0C2 0 5 0 5 -4C5 -8 4 -12 0 -12Z" fill="#90ee90"/>
    <rect x="-1" y="0" width="2" height="6" fill="#228b22"/>
  </g>
  
  <!-- Size comparison arrows -->
  <g stroke="#ffffff" stroke-width="1" opacity="0.6">
    <path d="M22 20 L22 16 L20 18 M22 16 L24 18" fill="none"/>
    <path d="M38 18 L38 14 L36 16 M38 14 L40 16" fill="none"/>
    <path d="M54 16 L54 12 L52 14 M54 12 L56 14" fill="none"/>
  </g>
  
  <!-- Water drops showing different amounts -->
  <g fill="#4a90e2" opacity="0.7">
    <ellipse cx="16" cy="45" rx="2" ry="3"/>
    <ellipse cx="32" cy="47" rx="3" ry="4"/>
    <ellipse cx="48" cy="49" rx="4" ry="5"/>
  </g>
</svg>
