<svg width="64" height="64" viewBox="0 0 64 64" fill="none" xmlns="http://www.w3.org/2000/svg">
  <!-- Background circle -->
  <circle cx="32" cy="32" r="30" fill="#87a96b" stroke="#6b8e5a" stroke-width="2"/>
  
  <!-- Sun -->
  <circle cx="20" cy="20" r="6" fill="#ffd700" stroke="#ffb347" stroke-width="1"/>
  <g stroke="#ffd700" stroke-width="2" stroke-linecap="round">
    <line x1="20" y1="10" x2="20" y2="14"/>
    <line x1="20" y1="26" x2="20" y2="30"/>
    <line x1="10" y1="20" x2="14" y2="20"/>
    <line x1="26" y1="20" x2="30" y2="20"/>
    <line x1="13" y1="13" x2="16" y2="16"/>
    <line x1="24" y1="24" x2="27" y2="27"/>
    <line x1="13" y1="27" x2="16" y2="24"/>
    <line x1="24" y1="16" x2="27" y2="13"/>
  </g>
  
  <!-- Cloud -->
  <ellipse cx="44" cy="20" rx="8" ry="5" fill="#e0e0e0" stroke="#b0b0b0" stroke-width="1"/>
  <ellipse cx="40" cy="22" rx="6" ry="4" fill="#e0e0e0" stroke="#b0b0b0" stroke-width="1"/>
  <ellipse cx="48" cy="22" rx="5" ry="3" fill="#e0e0e0" stroke="#b0b0b0" stroke-width="1"/>
  
  <!-- Rain drops -->
  <g fill="#4a90e2">
    <ellipse cx="38" cy="28" rx="1.5" ry="3"/>
    <ellipse cx="44" cy="30" rx="1.5" ry="3"/>
    <ellipse cx="50" cy="28" rx="1.5" ry="3"/>
  </g>
  
  <!-- Plant in center -->
  <path d="M32 28C30 28 28 30 28 32C28 34 30 36 32 36C34 36 36 34 36 32C36 30 34 28 32 28Z" fill="#a8d5ba"/>
  
  <!-- Data lines from weather to plant -->
  <g stroke="#ffffff" stroke-width="1" stroke-dasharray="2,2" opacity="0.6">
    <line x1="20" y1="26" x2="30" y2="30"/>
    <line x1="44" y1="25" x2="34" y2="30"/>
  </g>
  
  <!-- Stem -->
  <rect x="30" y="36" width="4" height="6" fill="#6b8e5a"/>
  
  <!-- Pot -->
  <path d="M26 42L28 48H36L38 42H26Z" fill="#8b7355"/>
  <rect x="24" y="40" width="16" height="3" fill="#6b5a45"/>
</svg>
